#Comment line ignore any data following # character 
#Hierarchical Translation and Rotation (.htr) file 
[Header]	
#Header keywords are followed by a single value 
FileType HTR		#Single word string
DataType HTRS		#Translation followed by rotation and scale data
FileVersion 1		#integer
NumSegments 84		#integer
NumFrames 2		#integer
DataFrameRate 30		#integer, data frame rate in this file
EulerRotationOrder ZYX
CalibrationUnits mm
RotationUnits Degrees
GlobalAxisofGravity Y
BoneLengthAxis Y
ScaleFactor 1.00
[SegmentNames&Hierarchy]
#CHILD	PARENT
MASTER GLOBAL
root MASTER
chest root
L_mid_tent01 root
R_mid_tent01 root
spine01 root
Bip01_Neck chest
L_humerus chest
R_humerus chest
weapon_bone chest
Bip01_Head Bip01_Neck
eye_left_bone Bip01_Head
eye_right_bone Bip01_Head
L_forearm L_humerus
L_front_hand L_forearm
L_weapon_bone L_forearm
L_front_hand01_01 L_front_hand
L_front_hand02_01 L_front_hand
L_front_hand03_01 L_front_hand
L_front_hand01_02 L_front_hand01_01
L_front_hand02_02 L_front_hand02_01
L_front_hand03_02 L_front_hand03_01
R_forearm R_humerus
R_front_hand R_forearm
R_weapon_bone R_forearm
R_front_hand01_01 R_front_hand
R_front_hand02_01 R_front_hand
R_front_hand03_01 R_front_hand
R_front_hand01_02 R_front_hand01_01
R_front_hand02_02 R_front_hand02_01
R_front_hand03_02 R_front_hand03_01
null_rope01_connect L_mid_tent01
Rope1_Seg01 null_rope01_connect
Rope1_Seg02 Rope1_Seg01
Rope1_Seg03 Rope1_Seg02
Rope1_Seg04 Rope1_Seg03
Rope1_Seg05 Rope1_Seg04
Rope1_Seg06 Rope1_Seg05
Rope1_Seg07 Rope1_Seg06
Rope1_Seg09 Rope1_Seg07
L_mid_hand01 Rope1_Seg09
L_mid_hand02 Rope1_Seg09
L_mid_hand03 Rope1_Seg09
null_rope02_connect R_mid_tent01
Rope2_Seg01 null_rope02_connect
Rope2_Seg02 Rope2_Seg01
Rope2_Seg03 Rope2_Seg02
Rope2_Seg04 Rope2_Seg03
Rope2_Seg05 Rope2_Seg04
Rope2_Seg06 Rope2_Seg05
Rope2_Seg07 Rope2_Seg06
Rope2_Seg09 Rope2_Seg07
R_mid_hand01 Rope2_Seg09
R_mid_hand02 Rope2_Seg09
R_mid_hand03 Rope2_Seg09
spine02 spine01
spine03 spine02
pelvis spine03
null_rope03_connect pelvis
null_rope04_connect pelvis
Rope3_Seg01 null_rope03_connect
Rope3_Seg02 Rope3_Seg01
Rope3_Seg03 Rope3_Seg02
Rope3_Seg04 Rope3_Seg03
Rope3_Seg05 Rope3_Seg04
Rope3_Seg06 Rope3_Seg05
Rope3_Seg07 Rope3_Seg06
Rope3_Seg08 Rope3_Seg07
Rope3_Seg09 Rope3_Seg08
R_rear_hand01 Rope3_Seg09
R_rear_hand02 Rope3_Seg09
R_rear_hand03 Rope3_Seg09
Rope4_Seg01 null_rope04_connect
Rope4_Seg02 Rope4_Seg01
Rope4_Seg03 Rope4_Seg02
Rope4_Seg04 Rope4_Seg03
Rope4_Seg05 Rope4_Seg04
Rope4_Seg06 Rope4_Seg05
Rope4_Seg07 Rope4_Seg06
Rope4_Seg08 Rope4_Seg07
Rope4_Seg09 Rope4_Seg08
L_rear_hand01 Rope4_Seg09
L_rear_hand02 Rope4_Seg09
L_rear_hand03 Rope4_Seg09
[BasePosition]
#SegmentName Tx, Ty, Tz, Rx, Ry, Rz, BoneLength
MASTER 0.000000 0.000000 0.000000 -90.000000 0.000000 0.000000 10.000000 
root 0.000000 0.000000 0.000000 0.000000 0.000000 0.000000 10.000000 
chest 0.000000 0.000000 0.000000 0.000000 0.000000 0.000000 10.000000 
L_mid_tent01 0.000000 0.000000 0.000000 0.000000 0.000000 0.000000 10.000000 
R_mid_tent01 0.000000 0.000000 0.000000 0.000000 0.000000 0.000000 10.000000 
spine01 0.000000 0.000000 0.000000 0.000000 0.000000 0.000000 10.000000 
Bip01_Neck 0.000000 0.000000 0.000000 0.000000 0.000000 0.000000 10.000000 
L_humerus 0.000000 0.000000 0.000000 0.000000 0.000000 0.000000 10.000000 
R_humerus 0.000000 0.000000 0.000000 0.000000 0.000000 0.000000 10.000000 
weapon_bone 0.000000 0.000000 0.000000 0.000000 0.000000 0.000000 10.000000 
Bip01_Head 0.000000 0.000000 0.000000 0.000000 0.000000 0.000000 10.000000 
eye_left_bone 0.000000 0.000000 0.000000 0.000000 0.000000 0.000000 10.000000 
eye_right_bone 0.000000 0.000000 0.000000 0.000000 0.000000 0.000000 10.000000 
L_forearm 0.000000 0.000000 0.000000 0.000000 0.000000 0.000000 10.000000 
L_front_hand 0.000000 0.000000 0.000000 0.000000 0.000000 0.000000 10.000000 
L_weapon_bone 0.000000 0.000000 0.000000 0.000000 0.000000 0.000000 10.000000 
L_front_hand01_01 0.000000 0.000000 0.000000 0.000000 0.000000 0.000000 10.000000 
L_front_hand02_01 0.000000 0.000000 0.000000 0.000000 0.000000 0.000000 10.000000 
L_front_hand03_01 0.000000 0.000000 0.000000 0.000000 0.000000 0.000000 10.000000 
L_front_hand01_02 0.000000 0.000000 0.000000 0.000000 0.000000 0.000000 10.000000 
L_front_hand02_02 0.000000 0.000000 0.000000 0.000000 0.000000 0.000000 10.000000 
L_front_hand03_02 0.000000 0.000000 0.000000 0.000000 0.000000 0.000000 10.000000 
R_forearm 0.000000 0.000000 0.000000 0.000000 0.000000 0.000000 10.000000 
R_front_hand 0.000000 0.000000 0.000000 0.000000 0.000000 0.000000 10.000000 
R_weapon_bone 0.000000 0.000000 0.000000 0.000000 0.000000 0.000000 10.000000 
R_front_hand01_01 0.000000 0.000000 0.000000 0.000000 0.000000 0.000000 10.000000 
R_front_hand02_01 0.000000 0.000000 0.000000 0.000000 0.000000 0.000000 10.000000 
R_front_hand03_01 0.000000 0.000000 0.000000 0.000000 0.000000 0.000000 10.000000 
R_front_hand01_02 0.000000 0.000000 0.000000 0.000000 0.000000 0.000000 10.000000 
R_front_hand02_02 0.000000 0.000000 0.000000 0.000000 0.000000 0.000000 10.000000 
R_front_hand03_02 0.000000 0.000000 0.000000 0.000000 0.000000 0.000000 10.000000 
null_rope01_connect 0.000000 0.000000 0.000000 0.000000 0.000000 0.000000 10.000000 
Rope1_Seg01 0.000000 0.000000 0.000000 0.000000 0.000000 0.000000 10.000000 
Rope1_Seg02 0.000000 0.000000 0.000000 0.000000 0.000000 0.000000 10.000000 
Rope1_Seg03 0.000000 0.000000 0.000000 0.000000 0.000000 0.000000 10.000000 
Rope1_Seg04 0.000000 0.000000 0.000000 0.000000 0.000000 0.000000 10.000000 
Rope1_Seg05 0.000000 0.000000 0.000000 0.000000 0.000000 0.000000 10.000000 
Rope1_Seg06 0.000000 0.000000 0.000000 0.000000 0.000000 0.000000 10.000000 
Rope1_Seg07 0.000000 0.000000 0.000000 0.000000 0.000000 0.000000 10.000000 
Rope1_Seg09 0.000000 0.000000 0.000000 0.000000 0.000000 0.000000 10.000000 
L_mid_hand01 0.000000 0.000000 0.000000 0.000000 0.000000 0.000000 10.000000 
L_mid_hand02 0.000000 0.000000 0.000000 0.000000 0.000000 0.000000 10.000000 
L_mid_hand03 0.000000 0.000000 0.000000 0.000000 0.000000 0.000000 10.000000 
null_rope02_connect 0.000000 0.000000 0.000000 0.000000 0.000000 0.000000 10.000000 
Rope2_Seg01 0.000000 0.000000 0.000000 0.000000 0.000000 0.000000 10.000000 
Rope2_Seg02 0.000000 0.000000 0.000000 0.000000 0.000000 0.000000 10.000000 
Rope2_Seg03 0.000000 0.000000 0.000000 0.000000 0.000000 0.000000 10.000000 
Rope2_Seg04 0.000000 0.000000 0.000000 0.000000 0.000000 0.000000 10.000000 
Rope2_Seg05 0.000000 0.000000 0.000000 0.000000 0.000000 0.000000 10.000000 
Rope2_Seg06 0.000000 0.000000 0.000000 0.000000 0.000000 0.000000 10.000000 
Rope2_Seg07 0.000000 0.000000 0.000000 0.000000 0.000000 0.000000 10.000000 
Rope2_Seg09 0.000000 0.000000 0.000000 0.000000 0.000000 0.000000 10.000000 
R_mid_hand01 0.000000 0.000000 0.000000 0.000000 0.000000 0.000000 10.000000 
R_mid_hand02 0.000000 0.000000 0.000000 0.000000 0.000000 0.000000 10.000000 
R_mid_hand03 0.000000 0.000000 0.000000 0.000000 0.000000 0.000000 10.000000 
spine02 0.000000 0.000000 0.000000 0.000000 0.000000 0.000000 10.000000 
spine03 0.000000 0.000000 0.000000 0.000000 0.000000 0.000000 10.000000 
pelvis 0.000000 0.000000 0.000000 0.000000 0.000000 0.000000 10.000000 
null_rope03_connect 0.000000 0.000000 0.000000 0.000000 0.000000 0.000000 10.000000 
null_rope04_connect 0.000000 0.000000 0.000000 0.000000 0.000000 0.000000 10.000000 
Rope3_Seg01 0.000000 0.000000 0.000000 0.000000 0.000000 0.000000 10.000000 
Rope3_Seg02 0.000000 0.000000 0.000000 0.000000 0.000000 0.000000 10.000000 
Rope3_Seg03 0.000000 0.000000 0.000000 0.000000 0.000000 0.000000 10.000000 
Rope3_Seg04 0.000000 0.000000 0.000000 0.000000 0.000000 0.000000 10.000000 
Rope3_Seg05 0.000000 0.000000 0.000000 0.000000 0.000000 0.000000 10.000000 
Rope3_Seg06 0.000000 0.000000 0.000000 0.000000 0.000000 0.000000 10.000000 
Rope3_Seg07 0.000000 0.000000 0.000000 0.000000 0.000000 0.000000 10.000000 
Rope3_Seg08 0.000000 0.000000 0.000000 0.000000 0.000000 0.000000 10.000000 
Rope3_Seg09 0.000000 0.000000 0.000000 0.000000 0.000000 0.000000 10.000000 
R_rear_hand01 0.000000 0.000000 0.000000 0.000000 0.000000 0.000000 10.000000 
R_rear_hand02 0.000000 0.000000 0.000000 0.000000 0.000000 0.000000 10.000000 
R_rear_hand03 0.000000 0.000000 0.000000 0.000000 0.000000 0.000000 10.000000 
Rope4_Seg01 0.000000 0.000000 0.000000 0.000000 0.000000 0.000000 10.000000 
Rope4_Seg02 0.000000 0.000000 0.000000 0.000000 0.000000 0.000000 10.000000 
Rope4_Seg03 0.000000 0.000000 0.000000 0.000000 0.000000 0.000000 10.000000 
Rope4_Seg04 0.000000 0.000000 0.000000 0.000000 0.000000 0.000000 10.000000 
Rope4_Seg05 0.000000 0.000000 0.000000 0.000000 0.000000 0.000000 10.000000 
Rope4_Seg06 0.000000 0.000000 0.000000 0.000000 0.000000 0.000000 10.000000 
Rope4_Seg07 0.000000 0.000000 0.000000 0.000000 0.000000 0.000000 10.000000 
Rope4_Seg08 0.000000 0.000000 0.000000 0.000000 0.000000 0.000000 10.000000 
Rope4_Seg09 0.000000 0.000000 0.000000 0.000000 0.000000 0.000000 10.000000 
L_rear_hand01 0.000000 0.000000 0.000000 0.000000 0.000000 0.000000 10.000000 
L_rear_hand02 0.000000 0.000000 0.000000 0.000000 0.000000 0.000000 10.000000 
L_rear_hand03 0.000000 0.000000 0.000000 0.000000 0.000000 0.000000 10.000000 
#Beginning of Data. Separated by tabs
#Fr	Tx	Ty	Tz	Rx	Ry	Rz	SF
[MASTER]
9 -0.000587 3979.946777 1181.474121 0.001660 0.001660 0.001660 4151.608887
10 -0.000642 4370.674316 1272.488281 0.001660 0.001660 0.001660 4552.144531
[root]
9 -26.258892 -20.721443 1473.100098 -84.203560 -27.350086 -95.251930 1473.479858
10 -28.125782 -24.733274 1477.841675 -83.162148 -29.539377 -96.052620 1478.316284
[chest]
9 -84.512650 -34.090519 0.000000 -1.246796 1.787011 -154.468582 91.129311
10 -84.512650 -34.090519 0.000000 -1.202804 1.868445 -154.818420 91.129311
[L_mid_tent01]
9 27.299248 22.179193 -249.918701 1.827023 -0.663780 46.202728 252.381714
10 27.299265 22.179205 -249.918701 0.578412 0.919786 45.401291 252.381714
[R_mid_tent01]
9 23.228794 24.509907 226.238495 167.124680 -3.354545 51.287514 228.744751
10 23.228794 24.509907 226.238495 169.028275 -4.380105 50.147671 228.744751
[spine01]
9 -0.361383 -0.195265 0.000000 0.002062 0.001122 32.879829 0.410763
10 -0.361383 -0.195265 0.000000 0.002061 0.001123 32.859203 0.410763
[Bip01_Neck]
9 165.484543 71.581718 0.000119 176.643677 -1.657967 43.431911 180.302734
10 165.484543 71.581718 0.000119 176.643677 -1.657967 43.431915 180.302734
[L_humerus]
9 -13.983130 -135.272980 -120.471481 -6.926821 64.307983 82.935844 181.680161
10 -13.983130 -135.272980 -120.471481 -6.984456 64.055962 82.869965 181.680161
[R_humerus]
9 -13.983309 -135.273102 125.287651 25.807369 -65.121605 69.911644 184.909012
10 -13.983309 -135.273102 125.287651 25.712357 -64.857376 70.012688 184.909012
[weapon_bone]
9 235.964890 -300.705902 0.000000 0.000000 -89.951546 -128.212341 382.234833
10 235.964890 -300.705902 0.000000 0.000000 -89.951546 -128.212341 382.234833
[Bip01_Head]
9 213.529663 185.479431 14.826065 4.978729 8.260610 -43.815334 283.226685
10 213.577866 185.344528 16.568323 4.978353 7.066067 -43.845837 283.271271
[eye_left_bone]
9 -24.626970 125.451866 -64.772606 0.000000 -90.000000 -99.840431 143.318359
10 -24.626970 125.451866 -64.772606 0.000000 -90.000000 -99.840431 143.318359
[eye_right_bone]
9 -24.626970 125.451866 64.327362 0.000000 -89.965736 80.156380 143.117676
10 -24.626970 125.451866 64.327362 0.000000 -89.965736 80.156380 143.117676
[L_forearm]
9 322.776093 0.000000 -0.000119 0.000427 -0.002308 -110.957764 322.776093
10 322.776093 0.000000 -0.000119 0.000429 -0.002308 -111.053810 322.776093
[L_front_hand]
9 241.149185 -0.042021 -3.300071 -178.667953 -1.835447 -27.422350 241.171753
10 241.149185 -0.042021 -3.300071 -178.667953 -1.835447 -27.422350 241.171753
[L_weapon_bone]
9 156.183838 0.000000 0.000000 0.000014 0.000007 0.000001 156.183838
10 156.183838 0.000000 0.000000 0.000014 0.000007 0.000001 156.183838
[L_front_hand01_01]
9 86.095154 20.947098 -0.655860 -0.306535 -0.513312 68.646957 88.609184
10 86.095154 20.947098 -0.655860 -0.291918 -0.522545 67.227623 88.609184
[L_front_hand02_01]
9 86.935165 -11.437475 24.513514 145.004044 -56.473930 -50.323570 91.046425
10 86.935165 -11.437475 24.513514 143.299133 -55.645813 -48.269917 91.046425
[L_front_hand03_01]
9 86.637497 -14.123976 -20.424902 -145.151367 54.687611 -52.198399 90.126129
10 86.637497 -14.123976 -20.424902 -143.556335 53.862476 -50.232788 90.126129
[L_front_hand01_02]
9 71.020905 -0.000179 0.000030 0.000316 -0.002326 -105.490036 71.020905
10 71.020905 -0.000179 0.000030 0.000316 -0.002326 -105.466431 71.020905
[L_front_hand02_02]
9 71.020927 -0.000119 0.000060 0.000316 -0.002326 -105.490036 71.020927
10 71.020927 -0.000119 0.000060 0.000316 -0.002326 -105.466431 71.020927
[L_front_hand03_02]
9 71.020905 -0.000060 0.000060 0.000316 -0.002326 -105.490036 71.020905
10 71.020905 -0.000060 0.000060 0.000316 -0.002326 -105.466431 71.020905
[R_forearm]
9 322.776428 -0.000060 0.000030 0.201195 0.067908 -109.625587 322.776428
10 322.776428 -0.000060 0.000030 0.201149 0.068046 -109.704224 322.776428
[R_front_hand]
9 238.847015 -0.006795 2.210259 -2.635298 -10.645461 -26.312506 238.857239
10 238.847015 -0.006795 2.210259 -2.635298 -10.645461 -26.312506 238.857239
[R_weapon_bone]
9 155.664093 0.002503 -0.000030 0.003487 0.001180 -90.988930 155.664078
10 155.664093 0.002503 -0.000030 0.003487 0.001180 -90.988930 155.664078
[R_front_hand01_01]
9 87.624611 14.231146 22.918642 -145.613235 -56.747219 51.157963 91.683487
10 87.624611 14.231146 22.918642 -143.671631 -55.829556 48.823868 91.683487
[R_front_hand02_01]
9 89.356956 14.367283 -19.491137 146.110458 55.128284 53.601921 92.579636
10 89.356956 14.367283 -19.491137 144.272369 54.223438 51.351048 92.579636
[R_front_hand03_01]
9 87.286232 -22.307278 -0.143439 0.113738 -0.439575 -69.369316 90.091743
10 87.286232 -22.307278 -0.143439 0.102142 -0.441771 -67.781387 90.091743
[R_front_hand01_02]
9 71.020905 0.000060 0.000119 0.002323 -0.000334 106.381714 71.020905
10 71.020905 0.000060 0.000119 0.002323 -0.000334 106.381714 71.020905
[R_front_hand02_02]
9 71.020844 -0.000030 -0.000119 0.002323 -0.000334 106.381714 71.020836
10 71.020844 -0.000030 -0.000119 0.002323 -0.000334 106.381714 71.020836
[R_front_hand03_02]
9 71.020905 0.000000 0.000030 0.002323 -0.000334 106.381714 71.020905
10 71.020905 0.000000 0.000030 0.002323 -0.000334 106.381714 71.020905
[null_rope01_connect]
9 328.732483 0.000000 -0.000238 -19.688908 -82.478539 91.105049 328.732483
10 328.732483 0.000000 -0.000238 -30.674725 -82.728218 105.085464 328.732483
[Rope1_Seg01]
9 -0.000031 -0.000062 0.000124 -35.698631 28.462286 -72.566933 0.000142
10 -0.000030 -0.000060 0.000120 -35.416988 26.647711 -77.859940 0.000137
[Rope1_Seg02]
9 139.999863 -0.000179 0.000000 4.398125 -1.206527 -4.262689 139.999863
10 139.999863 -0.000179 0.000000 6.741715 -2.560400 -4.570563 139.999863
[Rope1_Seg03]
9 139.999924 0.000060 -0.000060 6.505768 -3.448200 -4.110299 139.999924
10 139.999924 0.000060 -0.000060 9.282026 -5.776286 -4.025458 139.999924
[Rope1_Seg04]
9 139.999924 -0.000060 -0.000119 6.211786 -3.107773 -3.987849 139.999924
10 139.999924 -0.000060 -0.000119 4.202741 -1.455069 -3.071221 139.999924
[Rope1_Seg05]
9 139.999832 0.000119 -0.000060 -6.244380 8.407184 -3.865157 139.999832
10 139.999832 0.000119 -0.000060 -8.464475 8.778824 -2.643802 139.999832
[Rope1_Seg06]
9 139.999954 0.000119 -0.000060 -6.304904 5.432299 -1.358935 139.999954
10 139.999954 0.000119 -0.000060 -5.657966 4.327526 -0.663210 139.999954
[Rope1_Seg07]
9 139.999985 0.000060 0.000000 -2.909746 2.321568 -0.606571 139.999985
10 139.999985 0.000060 0.000000 -2.941680 2.048012 -0.268648 139.999985
[Rope1_Seg09]
9 121.602913 0.000119 -0.000089 -89.793175 -1.359789 0.847147 121.602913
10 121.602913 0.000119 -0.000089 -89.793175 -1.359789 0.847147 121.602913
[L_mid_hand01]
9 103.859421 1.038730 8.195221 109.056190 -40.604698 -13.201404 104.187431
10 103.859421 1.038730 8.195221 109.301483 -41.408253 -13.576799 104.187431
[L_mid_hand02]
9 105.572853 -4.139662 -10.864139 -146.713593 31.476528 -37.902313 106.211075
10 105.572853 -4.139662 -10.864139 -147.153671 31.943630 -38.737034 106.211075
[L_mid_hand03]
9 104.641464 17.579376 -3.913581 -14.267232 12.322316 43.898403 106.179977
10 104.641464 17.579376 -3.913581 -14.087292 12.528420 44.741467 106.179977
[null_rope02_connect]
9 328.732849 0.000179 -0.000119 -46.428432 82.255798 66.762833 328.732849
10 328.732849 0.000179 -0.000119 -61.138432 84.068787 48.532219 328.732849
[Rope2_Seg01]
9 0.000045 0.000124 0.000000 100.445641 22.926653 -121.750771 0.000132
10 0.000046 0.000120 0.000000 100.533440 20.048288 -118.376808 0.000129
[Rope2_Seg02]
9 139.999741 -0.000060 -0.000119 -0.205233 6.931801 -3.088041 139.999756
10 139.999741 -0.000060 -0.000119 -0.194561 8.594090 -4.194856 139.999756
[Rope2_Seg03]
9 140.000107 0.000030 0.000000 -0.357653 10.480715 -4.944480 140.000107
10 140.000107 0.000030 0.000000 0.363901 12.012589 -7.061073 140.000107
[Rope2_Seg04]
9 139.999802 0.000000 -0.000060 6.012393 19.595869 -16.079584 139.999802
10 139.999802 0.000000 -0.000060 9.211394 16.916647 -15.124696 139.999802
[Rope2_Seg05]
9 139.999985 -0.000060 0.000119 -22.568392 10.340001 7.635227 139.999985
10 139.999985 -0.000060 0.000119 -25.528391 7.057360 11.183760 139.999985
[Rope2_Seg06]
9 139.999893 -0.000030 -0.000119 -16.807590 -5.471090 15.449780 139.999893
10 139.999893 -0.000030 -0.000119 -16.881071 -5.719449 16.558809 139.999893
[Rope2_Seg07]
9 139.999893 0.000060 -0.000060 -4.635413 -1.671065 5.189574 139.999893
10 139.999893 0.000060 -0.000060 -4.620355 -2.526324 6.017609 139.999893
[Rope2_Seg09]
9 121.338966 0.000089 -0.000060 33.793236 -1.359788 -0.847141 121.338966
10 121.338966 0.000089 -0.000060 33.793236 -1.359788 -0.847141 121.338966
[R_mid_hand01]
9 104.680779 11.144459 -10.335981 -33.085686 36.191681 44.913227 105.778534
10 104.680779 11.144459 -10.335981 -34.826851 34.540035 41.908733 105.778534
[R_mid_hand02]
9 104.070427 2.443552 8.231699 67.611252 -49.370300 17.897308 104.424065
10 104.070427 2.443552 8.231699 68.824310 -46.622631 16.260359 104.424065
[R_mid_hand03]
9 106.028137 -11.221827 -5.996406 -171.571182 13.427422 -54.737041 106.788818
10 106.028137 -11.221827 -5.996406 -170.883774 12.973572 -51.735531 106.788818
[spine02]
9 129.756927 0.001550 0.000119 0.517551 -4.026569 -15.154319 129.756927
10 129.756927 0.001550 0.000119 0.521943 -4.026003 -15.279285 129.756927
[spine03]
9 78.614143 0.081511 -4.899010 1.986832 3.786148 17.859118 78.766685
10 78.614159 0.081515 -4.899009 1.992176 3.784240 17.946934 78.766701
[pelvis]
9 169.435242 0.051022 0.000000 -0.069781 -0.177953 16.913078 169.435257
10 169.435242 0.051022 0.000000 -0.070022 -0.177858 17.068096 169.435257
[null_rope03_connect]
9 -1.257226 -2.466202 137.391083 -20.109383 -83.161095 85.226280 137.418976
10 -1.257226 -2.466202 137.391083 -18.256887 -82.396225 85.563820 137.418976
[null_rope04_connect]
9 -1.259640 -2.480268 -137.844437 -20.109383 -83.161095 85.226280 137.872513
10 -1.259640 -2.480268 -137.844437 -18.256887 -82.396225 85.563820 137.872513
[Rope3_Seg01]
9 -0.000036 0.000000 -0.000029 -149.160355 34.416218 -106.851921 0.000047
10 -0.000036 0.000000 -0.000033 -147.690018 31.251436 -107.964211 0.000049
[Rope3_Seg02]
9 139.999924 -0.000119 0.000060 1.178119 -1.939938 -6.278924 139.999924
10 139.999924 -0.000119 0.000060 1.149280 -2.937522 -7.429554 139.999924
[Rope3_Seg03]
9 139.999924 -0.000119 0.000119 0.871139 -2.007588 -6.080956 139.999924
10 139.999924 -0.000119 0.000119 0.824973 -2.994410 -7.213346 139.999924
[Rope3_Seg04]
9 139.999924 0.000119 0.000000 0.434211 -3.777731 -7.093393 139.999924
10 139.999924 0.000119 0.000000 0.482485 -5.648023 -9.023750 139.999924
[Rope3_Seg05]
9 139.999924 -0.000238 0.000060 0.445096 -1.731121 -5.096471 139.999924
10 139.999924 -0.000238 0.000060 0.353842 -2.634886 -5.831620 139.999924
[Rope3_Seg06]
9 139.999893 -0.000119 -0.000060 0.770305 2.706913 -1.390117 139.999893
10 139.999893 -0.000119 -0.000060 0.554227 3.955030 -0.191997 139.999893
[Rope3_Seg07]
9 139.999771 0.000060 -0.000119 1.081790 4.526904 0.153320 139.999771
10 139.999771 0.000060 -0.000119 1.344323 8.133062 2.908997 139.999771
[Rope3_Seg08]
9 139.999985 -0.000060 0.000000 0.920342 2.051754 -0.906886 139.999985
10 139.999985 -0.000060 0.000000 1.235426 4.246529 0.438465 139.999985
[Rope3_Seg09]
9 90.185997 -0.000179 -0.000060 89.793228 -1.359877 -0.847183 90.185997
10 90.185997 -0.000179 -0.000060 89.793228 -1.359877 -0.847183 90.185997
[R_rear_hand01]
9 103.366196 -6.073594 -10.757982 -166.818848 21.039259 -46.280426 104.101845
10 103.366196 -6.073594 -10.757982 -165.718872 20.328495 -43.170486 104.101845
[R_rear_hand02]
9 100.509819 12.039542 -7.992327 -28.339693 27.613865 43.697414 101.543350
10 100.509819 12.039542 -7.992327 -29.668055 26.160351 40.761948 101.543350
[R_rear_hand03]
9 101.539970 5.215704 5.435467 81.685280 -46.725750 9.939899 101.819031
10 101.539970 5.215704 5.435467 82.115250 -43.756126 9.334551 101.819031
[Rope4_Seg01]
9 0.000010 0.000038 -0.000114 49.976906 9.032091 -48.605095 0.000121
10 0.000010 0.000038 -0.000114 45.456898 4.670664 -51.514370 0.000121
[Rope4_Seg02]
9 139.999985 0.000060 0.000119 16.636827 -7.014640 -22.589115 139.999985
10 139.999985 0.000060 0.000119 15.649733 -6.338200 -23.373064 139.999985
[Rope4_Seg03]
9 139.999924 0.000000 -0.000238 6.223823 -9.074268 -15.285260 139.999924
10 139.999924 0.000000 -0.000238 5.805008 -8.269485 -15.700953 139.999924
[Rope4_Seg04]
9 139.999985 0.000000 0.000119 2.904723 -6.924096 -12.349875 139.999985
10 139.999985 0.000000 0.000119 2.311450 -6.265605 -11.597877 139.999985
[Rope4_Seg05]
9 139.999802 -0.000060 -0.000119 0.245701 -2.996344 -2.330195 139.999802
10 139.999802 -0.000060 -0.000119 0.170163 -2.295919 -1.743046 139.999802
[Rope4_Seg06]
9 139.999924 0.000000 0.000060 -0.256383 -1.351390 3.417962 139.999924
10 139.999924 0.000000 0.000060 -0.181563 -0.432485 3.964664 139.999924
[Rope4_Seg07]
9 139.999802 0.000000 0.000000 -1.063880 -0.539866 10.099576 139.999802
10 139.999802 0.000000 0.000000 -0.851635 0.717912 9.538143 139.999802
[Rope4_Seg08]
9 139.999924 0.000000 0.000119 -2.644563 -1.270194 6.723547 139.999924
10 139.999924 0.000000 0.000119 -2.362618 -0.380551 5.235101 139.999924
[Rope4_Seg09]
9 90.185791 0.000060 0.000060 -135.617828 2.228885 0.850567 90.185791
10 90.185791 0.000060 0.000060 -135.617828 2.228885 0.850567 90.185791
[L_rear_hand01]
9 101.696655 -8.392275 -7.654577 -30.719042 -24.879360 141.681366 102.329041
10 101.696655 -8.392275 -7.654577 -29.575453 -26.270130 139.027267 102.329041
[L_rear_hand02]
9 102.726799 -1.568258 5.773216 82.428490 41.230476 171.131027 102.900848
10 102.726799 -1.568258 5.773216 82.088585 43.973633 170.624878 102.900848
[L_rear_hand03]
9 104.552910 9.721220 -10.420293 -164.822937 -19.676041 -139.457672 105.519653
10 104.552910 9.721220 -10.420293 -165.800003 -20.376877 -136.601624 105.519653
